<?xml version="1.0" encoding="utf-8"?>
<!-- Generator: Adobe Illustrator 18.1.1, SVG Export Plug-In . SVG Version: 6.00 Build 0)  -->
<svg version="1.1" id="Layer_1" xmlns="http://www.w3.org/2000/svg" xmlns:xlink="http://www.w3.org/1999/xlink" x="0px" y="0px"
	 viewBox="-269 519 100 100" enable-background="new -269 519 100 100" xml:space="preserve">
<g>
	<g>
		<path fill="#FFFFFF" d="M-197.9,617.2c-0.1,0-0.2,0-0.3,0c-1.6,0-2.7-0.7-3.6-1.4c-1.2-0.9-2.6-1.9-4.2-2.1
			c-4.7-0.6-9.5-1.1-14.1-1.5c-3.2-0.3-6.4-0.7-9.7-1c-1.9-0.2-3.8-0.4-5.7-0.5c-4.7-0.4-9.5-0.8-14.1-1.9c-2.2-0.5-3.2-1.8-3-3.7
			c0.3-2.5,0.3-5,0.3-7.5c0-2.5,0.1-5.2,0.3-7.8c0.3-2.9,0.7-5.8,1.1-8.3c0.4-2.7,0.4-5.5,0.5-8.2c0-3,0.1-6.1,0.6-9.1
			c0.3-1.5,0.2-2.9,0.2-4.5c0-1,0-2.1,0-3.2c0.1-1.6,0.3-3.2,0.5-4.7c0.4-2.8,0.7-5.6,0.5-8.5c-0.1-1.8,0.1-2.9,0.9-3.7
			c0.8-0.8,2-1.1,4-1c2.7,0.1,5.4,0.4,8,0.8c2.1,0.3,4.2,0.5,6.3,0.7c3.8,0.3,7.6,0.7,11.2,1c2.3,0.2,4.7,0.5,7,0.7
			c0.8,0.1,1.6,0.1,2.4,0.2c1.7,0.1,3.4,0.2,5.2,0.5c0.4,0.1,0.8,0.1,1.2,0.2c1.6,0.4,3.2,0.7,4.5-0.4c0.3-0.2,0.7-0.2,0.9,0.1
			c0.2,0.3,0.2,0.7-0.1,0.9c-1.8,1.5-3.9,1.1-5.6,0.7c-0.4-0.1-0.8-0.2-1.1-0.2c-1.7-0.3-3.4-0.4-5.1-0.5c-0.8-0.1-1.6-0.1-2.5-0.2
			c-2.3-0.2-4.7-0.4-7-0.7c-3.7-0.4-7.5-0.8-11.2-1c-2.1-0.2-4.3-0.4-6.4-0.7c-2.6-0.3-5.3-0.6-7.9-0.8c-1.6-0.1-2.5,0.1-3,0.6
			c-0.4,0.5-0.6,1.3-0.5,2.7c0.2,3-0.2,5.9-0.5,8.8c-0.2,1.5-0.4,3.1-0.5,4.6c-0.1,1,0,2.1,0,3.1c0,1.5,0.1,3.1-0.2,4.8
			c-0.5,2.9-0.5,5.9-0.6,8.9c0,2.7-0.1,5.6-0.5,8.4c-0.4,2.5-0.8,5.3-1.1,8.2c-0.3,2.5-0.3,5.1-0.3,7.6c0,2.5,0,5.1-0.3,7.6
			c-0.1,1.3,0.4,2,2,2.3c4.6,1.1,9.3,1.5,13.9,1.9c1.9,0.2,3.8,0.3,5.8,0.5c3.2,0.4,6.4,0.7,9.6,1c4.6,0.5,9.4,1,14.1,1.5
			c1.9,0.2,3.5,1.3,4.8,2.3c0.9,0.7,1.7,1.1,2.9,1.2c2.4,0.1,2.8-0.3,3.1-2.5c0.3-2.1,0.5-4.3,0.8-6.4c0.5-4,1-8.1,1.4-12.1
			c0.4-3.4,0.8-6.8,1.2-10.2c0.5-4.1,1-8.4,1.4-12.6c0.9-9.9,2.1-18.8,3.7-27.1c0.1-0.7-0.1-1.3-0.6-1.9c-0.2-0.3-0.2-0.7,0.1-0.9
			c0.3-0.2,0.7-0.2,0.9,0.1c0.8,0.9,1.1,2,0.9,3.1c-1.6,8.2-2.8,17.1-3.7,27c-0.4,4.2-0.9,8.5-1.4,12.6c-0.4,3.3-0.8,6.8-1.2,10.1
			c-0.4,4.1-0.9,8.2-1.4,12.1c-0.3,2.1-0.5,4.3-0.8,6.4C-194.2,616.3-195.2,617.2-197.9,617.2z"/>
	</g>
	<g>
		<path fill="#FFFFFF" d="M-199.7,542.1c-0.3,0-0.6,0-0.9-0.1c-3.7-1-7.4-1.8-11.2-2.5c-2.7-0.6-5.5-1.2-8.2-1.8
			c-3.3-0.7-6.7-1.5-10.1-2.2c-1.5-0.3-3-0.5-4.4-0.7c-2.8-0.4-5.7-0.7-8.4-1.7c-0.6-0.2-0.7-0.2-1,0.5l-0.1,0.2
			c-0.7,1.2-0.4,2.4-0.1,3.7c0.1,0.4,0.2,0.8,0.2,1.2c0,0.3-0.2,0.6-0.4,0.6c-0.3,0-0.6-0.2-0.6-0.4c-0.1-0.4-0.1-0.8-0.2-1.2
			c-0.3-1.4-0.6-2.9,0.2-4.4l0.1-0.2c0.4-0.7,0.8-1.6,2.3-1c2.6,1,5.4,1.3,8.2,1.7c1.5,0.2,3,0.4,4.5,0.7c3.4,0.7,6.8,1.4,10.1,2.2
			c2.7,0.6,5.4,1.2,8.1,1.8c3.8,0.8,7.6,1.6,11.3,2.6c0.8,0.2,1.4,0,2.2-0.3c0.3-0.1,0.6-0.2,0.8-0.3c0.3-0.1,0.6,0.1,0.6,0.4
			c0.1,0.3-0.1,0.6-0.4,0.6c-0.3,0.1-0.5,0.2-0.8,0.3C-198.4,541.9-199,542.1-199.7,542.1z"/>
	</g>
	<g>
		<path fill="#FFFFFF" d="M-198,541.7c-1.3,0-3.4-0.9-5.9-2.1c-0.9-0.4-1.7-0.8-2-0.9c-0.9-0.3-1.9-0.6-2.7-0.9
			c-1.1-0.4-2.3-0.8-3.5-1.1c-1.6-0.4-3.2-0.7-4.8-1c-6.5-1.4-13.2-2.8-19.7-4.6c-0.5-0.1-0.9-0.3-1.4-0.5c-1.1-0.5-2.2-0.9-3.4-0.4
			c0,0.1,0,0.2,0,0.2c0,0.8-0.1,1.8-1,2.5c-0.2,0.2-0.6,0.2-0.7-0.1c-0.2-0.2-0.2-0.6,0.1-0.7c0.5-0.4,0.5-1.1,0.6-1.8
			c0-0.2,0-0.4,0-0.6c0-0.2,0.1-0.3,0.3-0.4c1.8-0.8,3.2-0.2,4.5,0.3c0.4,0.2,0.8,0.3,1.2,0.5c6.5,1.8,13.2,3.2,19.7,4.6
			c1.6,0.3,3.2,0.7,4.8,1c1.3,0.3,2.5,0.7,3.6,1.1c0.9,0.3,1.8,0.6,2.7,0.9c0.4,0.1,1.2,0.5,2.2,1c1.4,0.7,5.2,2.5,5.8,1.9
			c0.2-0.2,0.6-0.2,0.7,0c0.2,0.2,0.2,0.5,0,0.7C-197.2,541.6-197.5,541.7-198,541.7z"/>
	</g>
	<g>
		<path fill="#FFFFFF" d="M-200.5,598.5c-0.3,0-0.5-0.2-0.5-0.5c-0.1-5.1,0.1-10.5,0.6-15.8c0.1-1,0.1-2,0.1-2.9
			c0-1.3,0.1-2.7,0.3-4.1c0.7-5,1.3-10.3,1.8-16.2c0.3-3.4,0.9-6.4,1.8-9.1c0.1-0.3,0.4-0.4,0.7-0.3c0.3,0.1,0.4,0.4,0.3,0.7
			c-0.9,2.6-1.5,5.5-1.8,8.9c-0.5,5.9-1.1,11.2-1.8,16.3c-0.2,1.3-0.2,2.7-0.2,4c0,1,0,2-0.1,3c-0.4,5.3-0.6,10.6-0.6,15.7
			C-200,598.3-200.2,598.5-200.5,598.5C-200.5,598.5-200.5,598.5-200.5,598.5z"/>
	</g>
	<g>
		<path fill="#FFFFFF" d="M-206.7,570.5C-206.7,570.5-206.7,570.5-206.7,570.5c-5.3-0.2-10.4-1-15.4-1.7c-5.8-0.8-11.9-1.7-18-1.7
			c-0.3,0-0.5-0.2-0.5-0.4c-0.5-3.5,0-7,0.5-10.3c0.1-1,0.3-2,0.4-3c0-0.3,0.2-0.5,0.5-0.5c2.7,0,5.2,0.6,7.6,1.1
			c0.8,0.2,1.6,0.3,2.4,0.5c1.6,0.3,3.2,0.6,4.8,1c4.2,0.9,8.5,1.8,12.9,1.8c2.1,0,4.1,0.8,5.7,1.5c0.1,0.1,0.2,0.1,0.3,0.2
			c0.3-0.2,0.6-0.3,1-0.3c0.3,0,0.5,0.2,0.5,0.5c0,0.3-0.2,0.5-0.5,0.5c-0.1,0-0.4,0-0.5,0.2c-0.1,0.1-0.1,0.4,0,0.9
			c0.7,2.7,0,5.2-0.7,7.3c-0.2,0.7-0.4,1.3-0.5,2C-206.2,570.3-206.4,570.5-206.7,570.5z M-239.6,566.1c6,0,11.9,0.9,17.7,1.7
			c4.8,0.7,9.8,1.4,14.9,1.6c0.1-0.5,0.3-1,0.4-1.6c0.6-2.1,1.3-4.3,0.7-6.8c-0.1-0.3-0.2-0.8-0.1-1.3c-0.1,0-0.1,0-0.2,0
			c-1.6-0.7-3.4-1.4-5.3-1.4c-4.5,0-8.8-1-13.1-1.9c-1.6-0.3-3.2-0.7-4.8-1c-0.8-0.1-1.6-0.3-2.4-0.5c-2.2-0.5-4.6-0.9-7-1
			c-0.1,0.9-0.2,1.7-0.4,2.6C-239.6,559.8-240,562.9-239.6,566.1z"/>
	</g>
	<g>
		<path fill="#FFFFFF" d="M-197.3,541.5c-0.1,0-0.1,0-0.2,0c-1.3-0.6-4.2-1.9-7.3-3.4c-3.8-1.8-7.8-3.6-8.7-4
			c-4-1.6-8.4-3.1-13.8-4.6c-1-0.3-2.1-0.5-3.1-0.7c-2.6-0.6-5.4-1.2-7.7-2.8c-0.9,0.7-1.1,1.6-1.4,2.6c-0.1,0.3-0.1,0.5-0.2,0.8
			c-0.1,0.3-0.4,0.4-0.7,0.4c-0.3-0.1-0.4-0.4-0.4-0.7c0.1-0.2,0.1-0.5,0.2-0.7c0.3-1.2,0.6-2.6,2.1-3.5c0.2-0.1,0.4-0.1,0.6,0
			c2.2,1.7,4.9,2.3,7.6,2.9c1,0.2,2.1,0.5,3.1,0.7c5.4,1.5,9.8,3,13.9,4.6c0.9,0.4,4.9,2.2,8.7,4c3.1,1.4,6,2.8,7.3,3.3
			c0.3,0.1,0.4,0.4,0.3,0.7C-196.9,541.3-197.1,541.5-197.3,541.5z"/>
	</g>
	<g>
		<path fill="#FFFFFF" d="M-209,575C-209,575-209,575-209,575c-2.5-0.2-4.9-0.5-7.3-0.7c-6.3-0.5-12.9-1.1-19.3-2.3
			c-0.3-0.1-0.5-0.3-0.4-0.6c0.1-0.3,0.3-0.5,0.6-0.4c6.3,1.2,12.9,1.8,19.2,2.3c2.4,0.2,4.9,0.4,7.3,0.7c0.3,0,0.5,0.3,0.5,0.6
			C-208.5,574.8-208.7,575-209,575z"/>
	</g>
	<g>
		<path fill="#FFFFFF" d="M-197.8,540.1c-0.3,0-0.5-0.2-0.6-0.5c0,0,0,0,0-0.1c0,0,0,0,0,0c-1.7-0.3-3-1.3-4.2-2.2
			c-1-0.8-2-1.6-3.2-1.9c-2.6-0.8-4.9-2.8-6.8-4.5c-1.3-1.1-2.9-1.7-4.3-2.3c-2.2-0.9-4.3-2.1-6.3-3.2c-1.7-1-3.4-2-5.2-2.7
			c-2.1-0.9-3.2-0.8-4.3,0.6c-0.2,0.3-0.6,0.3-0.9,0.1c-0.3-0.2-0.3-0.6-0.1-0.9c1.8-2.3,3.9-1.9,5.8-1c1.9,0.8,3.6,1.8,5.3,2.8
			c1.9,1.1,4,2.3,6.1,3.1c1.5,0.6,3.3,1.3,4.7,2.5c1.8,1.6,4,3.5,6.3,4.2c1.5,0.4,2.6,1.3,3.7,2.2c1.2,0.9,2.3,1.8,3.7,2
			c0.3,0,0.8,0.2,1,1c0.1,0.4-0.1,0.7-0.5,0.8C-197.7,540.1-197.7,540.1-197.8,540.1z"/>
	</g>
	<g>
		<path fill="#FFFFFF" d="M-197.6,540.8c-0.8,0-3.5-1.2-15.1-8c-1-0.6-1.9-1.1-2-1.2c-2.5-1.1-5.1-2-7.7-2.8
			c-2.1-0.7-4.3-1.4-6.4-2.3c-1.5-0.6-2.8-1.5-4.1-2.3c-0.7-0.4-1.4-0.9-2.1-1.3c-1,0.7-1.6,1.5-1.8,2.6c-0.1,0.3-0.4,0.5-0.6,0.4
			c-0.3-0.1-0.5-0.4-0.4-0.6c0.4-1.5,1.2-2.6,2.6-3.4c0.2-0.1,0.4-0.1,0.5,0c0.9,0.5,1.7,1,2.5,1.5c1.2,0.8,2.5,1.6,3.9,2.2
			c2.1,0.8,4.2,1.6,6.3,2.2c2.6,0.9,5.2,1.7,7.8,2.9c0.1,0.1,0.5,0.3,2.1,1.2c3.3,1.9,13.1,7.7,14.5,7.9c0.2-0.1,0.4,0,0.5,0.1
			c0.2,0.2,0.2,0.5,0,0.7C-197.2,540.7-197.3,540.8-197.6,540.8z"/>
	</g>
	<g>
		<path fill="#FFFFFF" d="M-215.5,579.7c0,0-0.1,0-0.1,0c-2.5-0.6-5.3-0.9-8.9-0.9c-1.2,0-2.4-0.2-3.5-0.4c-1.8-0.3-3.6-0.6-5.3,0
			c-0.3,0.1-0.6-0.1-0.7-0.4c-0.1-0.3,0.1-0.6,0.4-0.7c2-0.6,3.9-0.3,5.8,0c1.1,0.2,2.2,0.4,3.3,0.3c3.7-0.1,6.6,0.2,9.1,0.9
			c0.3,0.1,0.5,0.4,0.4,0.6C-215.1,579.6-215.3,579.7-215.5,579.7z"/>
	</g>
	<g>
		<path fill="#FFFFFF" d="M-191.4,546.1c-3.5,0-5.7-1.1-6.3-3.1c-0.1-0.4,0.1-0.7,0.4-0.8c0.4-0.1,0.7,0.1,0.8,0.4
			c0.6,2,3.9,2.1,5.2,2.1c1.4,0,3.4-1.3,3.6-2.5c0.2-0.8,0-1.1-0.5-1.3c-2.6-0.9-5.4-1.5-8.1-1.9c-0.1,0-0.2,0-0.4,0.2
			c-0.2,0.1-0.5,0.3-1,0.4c-0.4,0-0.7-0.3-0.7-0.6c0-0.4,0.3-0.7,0.6-0.7c0.1,0,0.2-0.1,0.3-0.2c0.3-0.2,0.7-0.4,1.3-0.3
			c2.8,0.5,5.6,1,8.4,2c1.8,0.7,1.5,2.2,1.4,2.8c-0.4,1.9-3,3.5-4.9,3.5C-191.3,546.1-191.4,546.1-191.4,546.1z"/>
	</g>
	<g>
		<path fill="#FFFFFF" d="M-201.8,609c-0.3,0-0.5-0.2-0.5-0.5c-0.1-1.2,0.1-2.4,0.2-3.6c0.1-1,0.3-2,0.3-2.9c0-0.3,0.2-0.5,0.5-0.5
			c0,0,0,0,0,0c0.3,0,0.5,0.2,0.5,0.5c0,1.1-0.1,2.1-0.3,3.1c-0.2,1.2-0.3,2.3-0.2,3.4C-201.2,608.7-201.4,609-201.8,609
			C-201.7,609-201.7,609-201.8,609z"/>
	</g>
</g>
</svg>
