<?xml version="1.0" encoding="utf-8"?>
<!-- Generator: Adobe Illustrator 18.1.1, SVG Export Plug-In . SVG Version: 6.00 Build 0)  -->
<svg version="1.1" id="Layer_1" xmlns="http://www.w3.org/2000/svg" xmlns:xlink="http://www.w3.org/1999/xlink" x="0px" y="0px"
	 viewBox="-269 519 100 100" enable-background="new -269 519 100 100" xml:space="preserve">
<g id="Layer_1_1_">
</g>
<g id="Layer_2">
	<path fill="#FFFFFF" d="M-219,520.6c-19.4,0-44.7,4.1-44.7,12.4l5.1,72.1c0,8.3,25.7,12.4,39.6,12.4s39.6-4.1,39.6-12.4l5.1-72.1
		C-174.3,524.7-199.6,520.6-219,520.6z M-219.2,524.4c14.6,0,37.9,1.5,40.6,8.5c-4.4,3.2-25.7,6.8-40.3,6.8s-36.2-4.6-40.6-7.8
		C-257.6,526.9-233.8,524.4-219.2,524.4z M-182.6,596.8c-1.5,2.4-23.6,7.8-36.4,7.8s-35-5.3-36.4-7.8l-4.9-60.2
		c10.9,5.8,35.9,7,40.3,7s31.3-0.5,42.3-6.3L-182.6,596.8z"/>
	<path fill="#FFFFFF" d="M-195.9,557.2l-1.2-3.6c-1.5-3.9-5.1-6.3-9.2-6.3c-1.2,0-2.2,0.2-3.4,0.5l-19.7,7c-1.9,0.7-3.4,1.9-4.6,3.6
		c-8-1-15.3-2.7-20.2-3.9l3.6,39.6c5.1,1.9,15.8,5.8,31.6,5.8s26.7-3.6,31.6-5.8l2.9-39.6C-187.7,555.5-191.8,556.5-195.9,557.2z
		 M-197.6,581l-19.7,7c-2.4,1-5.3-0.5-6.3-2.9l-7-19.7c-0.5-1.2-0.5-2.4,0.2-3.6c0.5-1.2,1.5-2.2,2.7-2.4l19.7-7
		c0.5-0.2,1-0.2,1.7-0.2c1.9,0,3.9,1.2,4.6,3.2l7,19.7C-193.7,577.4-195,580-197.6,581z"/>
</g>
<g id="Layer_3">
</g>
<g id="Layer_4">
</g>
<g id="Layer_5">
</g>
<g id="Layer_6">
</g>
</svg>
