<?xml version="1.0" encoding="utf-8"?>
<!-- Generator: Adobe Illustrator 18.1.1, SVG Export Plug-In . SVG Version: 6.00 Build 0)  -->
<svg version="1.1" id="Your_Icon" xmlns="http://www.w3.org/2000/svg" xmlns:xlink="http://www.w3.org/1999/xlink" x="0px" y="0px"
	 viewBox="-269 519 100 100" enable-background="new -269 519 100 100" xml:space="preserve">
<path fill="#FFFFFF" d="M-172.6,569c0,0.5-0.3,1-0.8,1.6c-0.1,0.1-0.2,0.2-0.4,0.4l-2.3,0.5c-0.9,5.6-2.9,9.7-5.8,12.4
	c-3,2.7-6.9,4.1-11.8,4.1c-3.5,0-6.3-1.2-8.4-3.6c-1.8-2-2.7-4.2-2.7-6.6c0-1.3,0.1-2.4,0.2-3.4c0.1-1,0.4-2.1,0.9-3.1
	c-0.8-0.2-1.5-0.3-2.2-0.4c-0.7-0.1-1.4-0.2-2.3-0.2c-1,0-2,0.2-3,0.6c-0.5,0.2-1.3,0.6-2.4,1.3c0.1,0.2,0.1,0.5,0.2,0.9
	c0,0.4,0.1,0.7,0.1,0.9c-0.8,6-3,10.5-6.8,13.5c-3,2.3-6.4,3.5-10.2,3.5c-4.6,0-8-1.4-10.5-4.1c-2-2.2-3-4.9-3-8.1c0-1,0-2,0.1-2.9
	c0.1-0.9,0.2-1.7,0.4-2.6l-2.7-0.1c-0.1,0-1.6-2.1-4.5-6.1c-3.2-4.6-5.8-8.2-7.8-11c-1.4-2-2.8-3.9-4.2-6c-0.3-0.5-0.6-0.7-0.9-0.7
	c-0.4,0-0.6,0.2-0.6,0.8c0,0.2,0.4,1.9,1.2,5.1c0.4,1.7,0.6,2.9,0.6,3.6c0,0.8-0.2,1.4-0.5,1.8c-0.3,0.4-0.8,0.5-1.6,0.5
	c-0.4,0-0.8-0.1-1.1-0.2c-0.3-0.2-0.4-0.4-0.4-0.8c0.1-0.5,0.2-0.9,0.2-1.3c0-0.4,0.1-0.9,0.1-1.3c0-0.9-0.2-2.2-0.6-3.9
	c-0.3-1-0.4-1.8-0.4-2.3c0-1.3,0.2-2.3,0.6-3c0.4-0.8,1.1-1.2,2.2-1.2c1,0,1.8,0.3,2.3,0.8l15.7,19.7h5.7c1.3-1,2.8-1.8,4.6-2.4
	c1.8-0.5,4.1-0.8,6.8-0.8c2.3,0,4.3,0.3,6,0.8c1.7,0.6,3.3,1.3,4.7,2.4c1.1,0,2.8-0.2,5.3-0.7c2.4-0.5,3.9-0.7,4.5-0.7
	c0.5,0,1.2,0.1,2.1,0.2c2,0.3,3.4,0.4,4.1,0.4c0.6,0,1.1,0,1.4-0.1c1.1-0.9,2.6-1.6,4.3-2.2c1.7-0.6,3.8-1,6.2-1.2
	c0.8,0,1.6,0,2.2,0c0.6,0,1.2,0,1.7,0l-17.5-10.2c-1.3-0.8-2-1.1-2.1-1.2c-0.8-0.4-1.7-0.6-2.6-0.6c-2,0-4.8,1.4-8.3,4.2
	c-3.5,2.8-5.5,4.2-6.2,4.2c-1.1,0-1.7-0.5-1.7-1.5c0-0.5,0.2-1,0.6-1.4c0.8-0.1,4.1-1.8,10-5.2c2.5-1.5,4.8-2.2,6.6-2.2
	c1.3,0,2.4,0.2,3.3,0.5c0.4,0.2,1,0.5,1.9,0.9l28.2,15.5c0.3,0.3,0.5,0.5,0.6,0.7C-172.8,567.9-172.6,568.4-172.6,569z
	 M-241.9,570.6l-1.9-0.8l-1.9,0.8l1.9,0.8L-241.9,570.6z M-217.1,576c0-2.7-1.3-4.7-3.9-6.1c-2.1-1.1-4.6-1.7-7.6-1.7
	c-3,0-5.5,0.6-7.6,1.7c-3.1,1.7-4.6,4.4-4.6,8.2c0,3.9,1.2,6.8,3.6,8.8c1.9,1.5,4.2,2.3,7,2.3c2.7,0,5.3-0.9,7.8-2.8
	C-218.8,584-217.1,580.5-217.1,576z M-224.7,574.3c0,1.5-0.1,2.7-0.3,3.6c-0.2,0.9-0.6,1.6-1.1,2.1l-0.3-0.3c0.6-0.6,1-1.7,1.3-3.4
	c0.1-0.7,0.1-1.3,0.1-2L-224.7,574.3z M-217.6,570.1c-0.7-0.9-1.4-1.6-2.2-2.1c-1-0.7-2.3-1.2-4-1.6l-0.1,0.9c1,0.2,1.9,0.6,2.9,1.1
	c0.9,0.5,1.9,1.3,2.9,2.3L-217.6,570.1z M-222.4,575.8c0,0.8-0.1,1.7-0.2,2.6c-0.1,0.9-0.4,1.6-0.9,2.1l-0.3-0.4
	c0.5-0.5,0.8-1.2,0.9-2.3c0.1-1.1,0.2-1.7,0.2-2L-222.4,575.8L-222.4,575.8z M-207.6,568.5l-0.4-0.7c-0.2,0-1.8,0.3-4.7,0.9
	c-1.5,0.3-2.6,0.5-3.2,0.5c-0.3,0-0.6,0-0.7-0.1l0.6,0.7c0.1,0,0.4,0.1,0.7,0.1c0.8,0,2.3-0.2,4.3-0.7
	C-209,568.7-207.8,568.5-207.6,568.5z M-201.1,581.6c-0.5-0.9-0.9-1.8-1.1-2.7c-0.2-0.9-0.3-1.7-0.3-2.4c0-0.7,0.1-1.4,0.3-2
	c0.2-0.6,0.4-1.2,0.6-1.7l-0.8-0.3c-0.3,0.8-0.5,1.6-0.7,2.3c-0.1,0.7-0.2,1.2-0.2,1.7c0,0.9,0.1,1.8,0.3,2.6
	c0.2,0.8,0.7,1.8,1.3,2.8L-201.1,581.6z M-179.4,572.6c0-2-1.2-3.5-3.5-4.6c-1.9-0.8-4.2-1.3-6.8-1.3c-2.7,0.3-5,1-6.8,2.1
	c-2.8,1.8-4.1,4.3-4.1,7.8c0,3.5,1,6,3.1,7.6c1.5,1.2,3.3,1.8,5.5,1.8c2.8,0,5.4-0.9,7.8-2.6C-181.1,581-179.4,577.4-179.4,572.6z
	 M-184.1,571.6c0,0.9-0.1,1.8-0.3,2.8c-0.2,0.9-0.6,1.7-1.1,2.3l-0.3-0.2c0.5-0.5,0.9-1.3,1.1-2.4c0.1-0.4,0.2-1.3,0.3-2.5H-184.1z
	 M-182.1,572.9c0,0.9-0.1,1.7-0.3,2.5c-0.2,0.7-0.4,1.3-0.7,1.6l-0.3-0.3c0.4-0.4,0.7-0.9,0.8-1.7c0.1-0.7,0.2-1.5,0.2-2.2
	L-182.1,572.9L-182.1,572.9z M-176.9,569.7c-0.5-0.9-1.2-1.7-2-2.4c-1-0.9-2.3-1.6-3.8-2.1l-0.2,0.8c1.3,0.5,2.5,1.1,3.4,1.9
	c0.7,0.6,1.3,1.4,1.8,2.2L-176.9,569.7z M-173.5,568.8l-1.5-0.4l-1.6,0.6l1.6,0.4L-173.5,568.8z"/>
</svg>
