<?xml version="1.0" encoding="utf-8"?>
<!-- Generator: Adobe Illustrator 16.0.4, SVG Export Plug-In . SVG Version: 6.00 Build 0)  -->
<!DOCTYPE svg PUBLIC "-//W3C//DTD SVG 1.1//EN" "http://www.w3.org/Graphics/SVG/1.1/DTD/svg11.dtd">
<svg version="1.1" id="Layer_1" xmlns="http://www.w3.org/2000/svg" xmlns:xlink="http://www.w3.org/1999/xlink" x="0px" y="0px"
	 width="56.693px" height="56.693px" viewBox="0 0 56.693 56.693" enable-background="new 0 0 56.693 56.693" xml:space="preserve">
<path fill="#FFFFFF" d="M30.507,5.188v11.381h11.379v8.788H30.507v12.619c0,2.854-0.034,4.502,0.267,5.311
	c0.301,0.805,1.055,1.642,1.875,2.123c1.092,0.654,2.332,0.98,3.733,0.98c2.492,0,4.972-0.81,7.437-2.429v7.761
	c-2.101,0.989-4.006,1.688-5.711,2.084c-1.707,0.396-3.549,0.6-5.531,0.6c-2.25,0-3.578-0.285-5.305-0.85
	c-1.73-0.572-3.205-1.386-4.424-2.431c-1.226-1.053-2.068-2.172-2.54-3.354c-0.474-1.187-0.709-2.904-0.709-5.154v-17.26h-6.687
	v-6.972c1.934-0.627,4.174-1.526,5.55-2.698c1.382-1.177,2.488-2.582,3.32-4.228c0.838-1.641,1.412-3.733,1.727-6.271L30.507,5.188
	L30.507,5.188z"/>
</svg>
