<?xml version="1.0" encoding="utf-8"?>
<!-- Generator: Adobe Illustrator 18.1.1, SVG Export Plug-In . SVG Version: 6.00 Build 0)  -->
<svg version="1.1" id="Layer_1" xmlns="http://www.w3.org/2000/svg" xmlns:xlink="http://www.w3.org/1999/xlink" x="0px" y="0px"
	 viewBox="-269 519 100 100" enable-background="new -269 519 100 100" xml:space="preserve">
<path fill="#FFFFFF" d="M-252.7,566.6c-1.1,0.3-0.7,1.9,0.4,1.7c0.8-0.2,2.2,0.7,3.3,2.8c-0.3,0.3-0.4,0.9-0.2,1.6
	c0.3,1,1.1,1.9,1.9,1.8c1.6-0.1,0.6-2.5,0.5-2.8C-248,568.6-250.3,566-252.7,566.6z M-214.9,583.2c0.4-0.2,0.5-0.6,0.4-1l0.4-0.3
	c0.7-0.5,1.4-0.7,2.3-0.7c1.2,0,1.2-1.8,0-1.8c-3.3,0.1-4.1,2.6-7.1,2.6c-3.2,0-4-2.1-6.9-2.6c-1.2-0.2-1.5,1.6-0.3,1.8
	c1.1,0.2,1.8,0.7,2.5,1.2c-0.1,0.3,0.1,0.6,0.5,0.8c-3.5,0.6-9,3.2-8.9,5.1c0.6,7.5,1.6,13.5,3.2,16.8c2.1,4,9.8,3.9,9.8,3.9
	s7.7,0,9.8-3.9c1.6-3.2,2.6-9.2,3.2-16.8C-205.8,586.3-211.4,583.7-214.9,583.2z M-219.2,591l0.2,0l0.2,0c1.9,0,4.3-0.1,7.1-0.4
	c-1.3,0.7-3.9,1.3-7.3,1.3c-3.4,0-5.9-0.6-7.3-1.3C-223.5,590.9-221.1,591-219.2,591z M-208.9,595.5c-0.6,3.1-1.2,4.2-3.4,4.2
	c-1.8,0-2.4-2.7-3-5.5c-1.3,0.2-2.5,0.3-3.4,0.3l-0.2,0l-0.2,0c-0.9,0-2.2-0.1-3.4-0.3c-0.6,2.8-1.2,5.5-3,5.5
	c-2.2,0-2.9-1.1-3.4-4.2c-0.2-1.2-0.4-2.3-0.8-5.4l0.3,0.1l0.7,0.1c0.7,2.2,5.4,3.3,10,3.3c4.5,0,9.2-1.1,10-3.3l0.7-0.1l0.3-0.1
	C-208.5,593.2-208.7,594.3-208.9,595.5z M-225.2,551.9c1.9,0.3,4.1,0.5,6.4,0.5c2.3,0,4.4-0.2,6.4-0.5c0.7-0.1,0.5-1.1-0.2-1
	c-1.9,0.3-4,0.5-6.2,0.5c-2.2,0-4.4-0.2-6.2-0.5C-225.7,550.8-225.9,551.8-225.2,551.9z M-230,555.8c3.4,0.5,7.2,0.8,11.2,0.8
	c4,0,7.8-0.3,11.2-0.8c0.7-0.1,0.5-1.1-0.2-1c-3.3,0.5-7.1,0.8-11,0.8s-7.7-0.3-11-0.8C-230.5,554.7-230.7,555.7-230,555.8z
	 M-189.9,563.2c0.1-2,0.1-4.1,0.1-6.3c0-15.8-3.8-25.4-10.1-30.9c-5.1-4.4-11.8-6-19.1-6.1c-2.6,0-5,0.2-7.4,0.7
	c-10.7,2-18.7,9-21.1,25.3c-0.5,3.3-0.7,6.9-0.7,11c0,2.2,0,4.3,0.1,6.3c-5.9-4.9-11.5,1.8-6.7,10.9c0.9,1.8,1.8,3.2,2.6,4.4
	c1.9,2.7,3.9,3.9,6.4,3.4c1.2,8.5,4.1,13.9,7.7,17.5c0.7,3.6,1.9,8,3.7,13.5l0,0.1c0.2,0.4,2.7,5.1,15.4,5.1
	c12.7,0,15.2-4.7,15.3-5.1l0-0.1c1.8-5.5,3-10,3.7-13.6c3.6-3.6,6.5-9,7.6-17.5c1.6,0.3,3,0,4.4-1.2c1.9-1.6,3.9-5,4.9-7.2
	C-178.7,564.6-184.2,558.4-189.9,563.2z M-184.5,572.8c-0.9,1.9-2.7,5.2-4.4,6.6c-1.1,0.9-2.1,1.1-3.3,0.7l-0.1,0
	c-0.5-0.4-1.4-0.3-1.4,0.5c-1.5,13.2-7.3,18.9-13.2,21.5c-0.2,0.8-0.5,1.5-0.7,2.1c1.9-0.7,3.8-1.7,5.7-3c-0.7,3.1-1.8,6.8-3.2,11.1
	c-2.4,3.6-10.6,4.1-13.8,4.1c-3.1,0-11.4-0.5-13.7-4c-1.4-4.3-2.5-8-3.2-11.1c1.8,1.4,3.7,2.3,5.7,3c-0.2-0.6-0.5-1.4-0.7-2.1
	c-5.9-2.6-11.7-8.3-13.2-21.5c-0.1-0.8-1-0.9-1.5-0.5l-0.1,0c-1.7,0.6-3.1,0.1-5-2.6c-0.8-1.1-1.6-2.5-2.5-4.2
	c-4.1-7.8,0.2-13.6,5.4-7.4c0.1,0.2,0.2,0.3,0.4,0.3c0.2,0.1,0.5,0.1,0.7,0c0.2-0.1,0.4-0.3,0.5-0.5c0.1-0.2,0.1-0.3,0-0.5
	c-0.2-2.6-0.2-5.4-0.2-8.3c0-4,0.2-7.5,0.7-10.8c2.3-15.6,9.8-21.9,19.7-23.8c2.2-0.4,4.6-0.6,7.1-0.6c7.1,0.1,13.3,1.6,18,5.6
	c5.8,5,9.5,14,9.5,29.6c0,3-0.1,5.8-0.3,8.5c-0.1,1.5,1.3,1,1.8,0.2c1.7-1.9,3.5-2.6,5-2.2C-183,564.1-182.3,568.1-184.5,572.8z
	 M-193.1,561.6c-1.3-3.8-5.2-4.5-11.7-4.7c-6.5-0.2-9.7,0.7-11,2.5c-0.2,0.3-0.4,0.7-0.5,1.1c-0.7-0.1-1.7-0.3-2.7-0.3
	c-1,0-2,0.1-2.7,0.3c-0.1-0.4-0.3-0.7-0.6-1.1c-1.3-1.8-4.5-2.6-11-2.5c-6.4,0.2-10.4,0.9-11.7,4.7l-0.3,1c-0.2,1-0.2,2.2-0.1,3.6
	c0.4,5,2.5,9.9,12.1,9.2c6.6-0.4,10.3-4,11.2-9.4c0.2-1.4,0.6-3,0.5-4.5c0.6-0.1,1.5-0.2,2.5-0.2c1,0,1.9,0.1,2.5,0.2
	c-0.2,1.5,0.2,3.2,0.5,4.5c0.9,5.4,4.7,9,11.2,9.4c9.6,0.7,11.7-4.2,12.1-9.2c0.1-1.4,0.1-2.6-0.1-3.6L-193.1,561.6z M-222.9,565.8
	c-0.8,4.9-4.2,8.2-10.3,8.6c-8.9,0.6-10.6-3.7-11-8.3c-0.6-6.8,2.6-8,11-8.2c6.5-0.2,9.2,0.8,10.2,2.1
	C-221.9,561.5-222.7,564.2-222.9,565.8z M-193.7,566.1c-0.4,4.6-2.1,8.9-11,8.3c-6.1-0.4-9.5-3.7-10.3-8.6c-0.3-1.6-1-4.3,0.1-5.8
	c1-1.3,3.6-2.2,10.2-2.1C-196.3,558.2-193.2,559.3-193.7,566.1z M-204.8,559c-1.8,0-3.3,0-4.5,0.1c-1.5,0.6-2.9,1.3-4.2,2.2
	c-1.7,1.2,0.1,3.8,1.8,2.6c2.4-1.7,5.5-2.8,8.9-2.8c2.3,0,4.4,0.5,6.3,1.3c0.6,0.2,1.1,0.2,1.5-0.1
	C-195.9,559.7-198.7,559.1-204.8,559z M-185.3,566.6c-2.4-0.6-4.7,2.1-5.9,5.1c-0.1,0.2-1.1,2.6,0.5,2.8c0.7,0.1,1.6-0.8,1.9-1.8
	c0.2-0.7,0.1-1.3-0.2-1.6c1.1-2,2.5-2.9,3.3-2.8C-184.6,568.5-184.2,566.9-185.3,566.6z M-204.6,563.5c-3.2,0-6.1,1.5-7.2,3.9
	c-0.5,1.1,1.1,1.8,1.6,0.7c0.5-1.2,2-2.3,4-2.7c-0.7,0.5-1.1,1.2-1.1,2.1c0,1.4,1.1,2.5,2.5,2.5c1.4,0,2.5-1.1,2.5-2.5
	c0-0.9-0.5-1.7-1.2-2.2c2.1,0.3,3.7,1.4,4.3,2.7c0.5,1.1,2.1,0.4,1.6-0.7C-198.6,565-201.4,563.5-204.6,563.5z M-224.5,561.3
	c-1.3-0.9-2.7-1.7-4.2-2.2c-1.2-0.1-2.7-0.2-4.5-0.1c-6.1,0.1-8.9,0.8-9.8,3.3c0.4,0.3,0.9,0.3,1.5,0.1c1.9-0.8,4-1.3,6.3-1.3
	c3.4,0,6.4,1,8.9,2.8C-224.6,565.1-222.7,562.5-224.5,561.3z M-233.4,563.5c-3.2,0-6,1.5-7.1,3.9c-0.5,1.1,1.1,1.8,1.6,0.7
	c0.6-1.3,2.1-2.4,4.3-2.7c-0.7,0.4-1.2,1.3-1.2,2.2c0,1.4,1.1,2.5,2.5,2.5c1.4,0,2.5-1.1,2.5-2.5c0-0.9-0.5-1.7-1.1-2.1
	c2,0.4,3.5,1.4,4,2.7c0.5,1.1,2.1,0.4,1.6-0.7C-227.2,565-230.2,563.5-233.4,563.5z"/>
</svg>
